<svg width="64" height="64" viewBox="0 0 64 64" fill="none" xmlns="http://www.w3.org/2000/svg">
<circle cx="32" cy="33" r="17" fill="#79FB58"/>
<path d="M41.0604 23.4013C40.8237 23.234 40.5565 23.1155 40.2744 23.0525C39.9922 22.9894 39.7005 22.9831 39.4159 23.034C39.1313 23.0848 38.8594 23.1917 38.6158 23.3486C38.3721 23.5056 38.1615 23.7094 37.9959 23.9486L29.6299 36.0123L24.1445 32.2289C23.7045 31.9251 23.1631 31.8101 22.6392 31.9094C22.1153 32.0086 21.6519 32.3139 21.351 32.7582C21.05 33.2024 20.9362 33.7491 21.0345 34.2781C21.1328 34.807 21.4352 35.2749 21.8751 35.5788L29.228 40.6497C29.4544 40.8058 29.7104 40.913 29.9797 40.9647C30.2491 41.0163 30.5261 41.0113 30.7935 40.9499C31.0787 40.8996 31.3512 40.7929 31.5955 40.636C31.8397 40.4791 32.0509 40.2751 32.2169 40.0356L41.6028 26.4973C41.9373 26.0138 42.068 25.4161 41.9663 24.8354C41.8645 24.2547 41.5386 23.7385 41.0601 23.4003" fill="white"/>
</svg>
