<svg width="1920" height="989" viewBox="0 0 1920 989" fill="none" xmlns="http://www.w3.org/2000/svg">
<path d="M-339 160.741C-292.833 142.407 75.7 57.3408 84.5 185.741C84.5 600.741 -535.5 719.741 65 719.741C218.099 719.741 266.744 792.536 189.5 844.741C26 955.241 408 894.241 496.5 844.741C864.5 808.741 660.4 644.741 328 600.741C-4.39999 556.741 158 323.408 231 199.741C304 76.0742 414.4 -58.059 574 30.741C773.5 141.741 1030.5 528.741 1108 772.741C1170 967.941 1445 786.741 1559.5 844.741C1651.67 867.908 1719.2 1061.64 1706 955.241C1689.5 822.241 1654.08 1005.24 1476.5 772.741C1376.9 642.341 1320.5 84 1578 44.5C1675.7 29.5123 1774.29 10.5 1825 130.5C1875.71 250.5 1829.42 366.305 1728 421.5C1654.5 461.5 1612.89 533.856 1621 572C1638 652 1655.11 674.727 1728 719.741C1916.54 836.177 2268.67 105.574 2259.5 232.741" stroke="white" stroke-width="3" stroke-miterlimit="1.30541" stroke-linecap="round"/>
</svg>
